<svg width="64" height="64" viewBox="0 0 64 64" xmlns="http://www.w3.org/2000/svg">
    <defs>
        <linearGradient id="bgGradient" x1="0%" y1="0%" x2="100%" y2="100%">
            <stop offset="0%" stop-color="#2E75B6"/>
            <stop offset="100%" stop-color="#1B3A5C"/>
        </linearGradient>
    </defs>
    <circle cx="32" cy="32" r="30" fill="url(#bgGradient)"/>
    <path d="M32 12C25 12 19 17 18 24C17 25 16 26 16 28C16 30 17 31 18 32C19 39 25 44 32 44C39 44 45 39 46 32C47 31 48 30 48 28C48 26 47 25 46 24C45 17 39 12 32 12Z" fill="#E8F0FE"/>
    <circle cx="26" cy="26" r="3" fill="#2E75B6"/>
    <circle cx="38" cy="26" r="3" fill="#2E75B6"/>
    <path d="M24 34C25 36 28 37 32 37C36 37 39 36 40 34" stroke="#E8F0FE" stroke-width="3" stroke-linecap="round"/>
    <circle cx="22" cy="20" r="2" fill="#E8F0FE" opacity="0.7"/>
    <circle cx="42" cy="20" r="2" fill="#E8F0FE" opacity="0.7"/>
    <circle cx="32" cy="16" r="2" fill="#E8F0FE" opacity="0.5"/>
</svg>