<svg width="64" height="64" viewBox="0 0 64 64" xmlns="http://www.w3.org/2000/svg">
    <defs>
        <linearGradient id="bgGradient" x1="0%" y1="0%" x2="100%" y2="100%">
            <stop offset="0%" stop-color="#2E75B6"/>
            <stop offset="100%" stop-color="#1B3A5C"/>
        </linearGradient>
    </defs>
    <circle cx="32" cy="32" r="30" fill="url(#bgGradient)"/>
    <circle cx="32" cy="28" r="8" fill="#E8F0FE"/>
    <path d="M32 40C24 40 16 44 16 48V56H48V48C48 44 40 40 32 40Z" fill="#E8F0FE"/>
    <circle cx="32" cy="28" r="6" fill="none" stroke="#2E75B6" stroke-width="3"/>
    <path d="M32 38C26 38 20 41 20 45V52H44V45C44 41 38 38 32 38Z" fill="none" stroke="#2E75B6" stroke-width="3"/>
    <circle cx="24" cy="16" r="2" fill="#E8F0FE" opacity="0.6"/>
    <circle cx="40" cy="16" r="2" fill="#E8F0FE" opacity="0.6"/>
    <circle cx="48" cy="24" r="2" fill="#E8F0FE" opacity="0.4"/>
    <circle cx="16" cy="24" r="2" fill="#E8F0FE" opacity="0.4"/>
    <path d="M28 60L32 56L36 60" stroke="#2E75B6" stroke-width="3" stroke-linecap="round" stroke-linejoin="round"/>
</svg>